# xmcd CD database file
#
# Track frame offsets:
#	150
#	26050
#	45941
#	62759
#	80391
#	102761
#	135653
#	163835
#	190210
#	210535
#	228299
#
# Disc length: 3427 seconds
#
# Revision: 0
# Processed by: cddbd v1.5.2PL0 Copyright (c) Steve Scherf et al.
# Submitted via: CDex 1.70beta2
#
DISCID=890d610b
DTITLE=Direct Drive and First Light Feat. Paul Hardcastle - Time Machine
DYEAR=2010
DGENRE=Jazz
TTITLE0=Direct Drive Feat Paul Hardcastle - Time Machine
TTITLE1=Direct Drive Feat Paul Hardcastle - Don't Depend On Me
TTITLE2=Direct Drive Feat Paul Hardcastle - Take A Stand
TTITLE3=Direct Drive Feat Paul Hardcastle - I'm The One
TTITLE4=Direct Drive Feat Paul Hardcastle - Time's Running Out
TTITLE5=First Light Feat Paul Hardcastle - Don't Be Mistaken
TTITLE6=First Light Feat Paul Hardcastle - A Horse With No Name
TTITLE7=First Light Feat Paul Hardcastle - A.M.
TTITLE8=First Light Feat Paul Hardcastle - I Don't Care
TTITLE9=First Light Feat Paul Hardcastle - She's A Mystery
TTITLE10=First Light Feat Paul Hardcastle - Time Machine
EXTD=YEAR: 2010
EXTT0=
EXTT1=
EXTT2=
EXTT3=
EXTT4=
EXTT5=
EXTT6=
EXTT7=
EXTT8=
EXTT9=
EXTT10=
PLAYORDER=
